<mxfile host="Electron" agent="Mozilla/5.0 (Windows NT 10.0; Win64; x64) AppleWebKit/537.36 (KHTML, like Gecko) draw.io/24.7.17 Chrome/128.0.6613.36 Electron/32.0.1 Safari/537.36" version="24.7.17">
  <diagram id="gzxb2B4pxYQWsGW0FbYt" name="第2頁">
    <mxGraphModel dx="712" dy="835" grid="1" gridSize="10" guides="1" tooltips="1" connect="1" arrows="1" fold="1" page="1" pageScale="1" pageWidth="827" pageHeight="1169" math="0" shadow="0">
      <root>
        <mxCell id="0" />
        <mxCell id="1" parent="0" />
        <mxCell id="2fKACoEcTCi64HmEH-q2-2" value="載入原始影像" style="whiteSpace=wrap;strokeWidth=2;sketch=1;hachureGap=4;jiggle=2;curveFitting=1;fontFamily=Architects Daughter;fontSource=https%3A%2F%2Ffonts.googleapis.com%2Fcss%3Ffamily%3DArchitects%2BDaughter;fontSize=18;" vertex="1" parent="1">
          <mxGeometry x="361" y="50" width="185" height="49" as="geometry" />
        </mxCell>
        <mxCell id="2fKACoEcTCi64HmEH-q2-4" value="轉換為灰階影像" style="whiteSpace=wrap;strokeWidth=2;sketch=1;hachureGap=4;jiggle=2;curveFitting=1;fontFamily=Architects Daughter;fontSource=https%3A%2F%2Ffonts.googleapis.com%2Fcss%3Ffamily%3DArchitects%2BDaughter;fontSize=18;" vertex="1" parent="1">
          <mxGeometry x="336.5" y="140" width="234" height="49" as="geometry" />
        </mxCell>
        <mxCell id="2fKACoEcTCi64HmEH-q2-5" value="Sobel Operator 一階微分" style="whiteSpace=wrap;strokeWidth=2;sketch=1;hachureGap=4;jiggle=2;curveFitting=1;fontFamily=Architects Daughter;fontSource=https%3A%2F%2Ffonts.googleapis.com%2Fcss%3Ffamily%3DArchitects%2BDaughter;fontSize=18;" vertex="1" parent="1">
          <mxGeometry x="188" y="239" width="236" height="67" as="geometry" />
        </mxCell>
        <mxCell id="2fKACoEcTCi64HmEH-q2-28" style="edgeStyle=orthogonalEdgeStyle;rounded=0;sketch=1;hachureGap=4;jiggle=2;curveFitting=1;orthogonalLoop=1;jettySize=auto;html=1;entryX=0.75;entryY=0;entryDx=0;entryDy=0;fontFamily=Architects Daughter;fontSource=https%3A%2F%2Ffonts.googleapis.com%2Fcss%3Ffamily%3DArchitects%2BDaughter;" edge="1" parent="1" source="2fKACoEcTCi64HmEH-q2-6" target="2fKACoEcTCi64HmEH-q2-9">
          <mxGeometry relative="1" as="geometry" />
        </mxCell>
        <mxCell id="2fKACoEcTCi64HmEH-q2-6" value="Laplace Operator 二階微分" style="whiteSpace=wrap;strokeWidth=2;sketch=1;hachureGap=4;jiggle=2;curveFitting=1;fontFamily=Architects Daughter;fontSource=https%3A%2F%2Ffonts.googleapis.com%2Fcss%3Ffamily%3DArchitects%2BDaughter;fontSize=18;" vertex="1" parent="1">
          <mxGeometry x="474" y="239" width="253" height="67" as="geometry" />
        </mxCell>
        <mxCell id="2fKACoEcTCi64HmEH-q2-29" value="" style="edgeStyle=orthogonalEdgeStyle;rounded=0;sketch=1;hachureGap=4;jiggle=2;curveFitting=1;orthogonalLoop=1;jettySize=auto;html=1;fontFamily=Architects Daughter;fontSource=https%3A%2F%2Ffonts.googleapis.com%2Fcss%3Ffamily%3DArchitects%2BDaughter;entryX=0.25;entryY=0;entryDx=0;entryDy=0;" edge="1" parent="1" source="2fKACoEcTCi64HmEH-q2-7" target="2fKACoEcTCi64HmEH-q2-9">
          <mxGeometry relative="1" as="geometry" />
        </mxCell>
        <mxCell id="2fKACoEcTCi64HmEH-q2-7" value="算術平均濾波 Mean Filter" style="whiteSpace=wrap;strokeWidth=2;sketch=1;hachureGap=4;jiggle=2;curveFitting=1;fontFamily=Architects Daughter;fontSource=https%3A%2F%2Ffonts.googleapis.com%2Fcss%3Ffamily%3DArchitects%2BDaughter;fontSize=18;" vertex="1" parent="1">
          <mxGeometry x="188" y="340" width="243" height="67" as="geometry" />
        </mxCell>
        <mxCell id="2fKACoEcTCi64HmEH-q2-9" value="將平均濾波與二階微分相乘" style="whiteSpace=wrap;strokeWidth=2;sketch=1;hachureGap=4;jiggle=2;curveFitting=1;fontFamily=Architects Daughter;fontSource=https%3A%2F%2Ffonts.googleapis.com%2Fcss%3Ffamily%3DArchitects%2BDaughter;fontSize=18;" vertex="1" parent="1">
          <mxGeometry x="330" y="460" width="252" height="67" as="geometry" />
        </mxCell>
        <mxCell id="2fKACoEcTCi64HmEH-q2-11" value="將結果與原始影像結合" style="whiteSpace=wrap;strokeWidth=2;sketch=1;hachureGap=4;jiggle=2;curveFitting=1;fontFamily=Architects Daughter;fontSource=https%3A%2F%2Ffonts.googleapis.com%2Fcss%3Ffamily%3DArchitects%2BDaughter;fontSize=18;" vertex="1" parent="1">
          <mxGeometry x="360.5" y="560" width="191" height="67" as="geometry" />
        </mxCell>
        <mxCell id="2fKACoEcTCi64HmEH-q2-12" value="完成" style="whiteSpace=wrap;strokeWidth=2;sketch=1;hachureGap=4;jiggle=2;curveFitting=1;fontFamily=Architects Daughter;fontSource=https%3A%2F%2Ffonts.googleapis.com%2Fcss%3Ffamily%3DArchitects%2BDaughter;fontSize=18;" vertex="1" parent="1">
          <mxGeometry x="395.25" y="660" width="121.5" height="49" as="geometry" />
        </mxCell>
        <mxCell id="2fKACoEcTCi64HmEH-q2-13" value="" style="curved=1;startArrow=none;endArrow=block;exitX=0.5;exitY=1;entryX=0.5;entryY=0;rounded=0;sketch=1;hachureGap=4;jiggle=2;curveFitting=1;fontFamily=Architects Daughter;fontSource=https%3A%2F%2Ffonts.googleapis.com%2Fcss%3Ffamily%3DArchitects%2BDaughter;fontSize=18;entryDx=0;entryDy=0;" edge="1" parent="1" source="2fKACoEcTCi64HmEH-q2-2" target="2fKACoEcTCi64HmEH-q2-4">
          <mxGeometry relative="1" as="geometry">
            <Array as="points" />
            <mxPoint x="453.5" y="139" as="targetPoint" />
          </mxGeometry>
        </mxCell>
        <mxCell id="2fKACoEcTCi64HmEH-q2-16" value="" style="curved=1;startArrow=none;endArrow=block;exitX=0.25;exitY=1;entryX=0.5;entryY=0;rounded=0;sketch=1;hachureGap=4;jiggle=2;curveFitting=1;fontFamily=Architects Daughter;fontSource=https%3A%2F%2Ffonts.googleapis.com%2Fcss%3Ffamily%3DArchitects%2BDaughter;fontSize=18;exitDx=0;exitDy=0;" edge="1" parent="1" source="2fKACoEcTCi64HmEH-q2-4" target="2fKACoEcTCi64HmEH-q2-5">
          <mxGeometry relative="1" as="geometry">
            <Array as="points">
              <mxPoint x="306" y="214" />
            </Array>
            <mxPoint x="380.96000000000004" y="-50" as="sourcePoint" />
          </mxGeometry>
        </mxCell>
        <mxCell id="2fKACoEcTCi64HmEH-q2-17" value="" style="curved=1;startArrow=none;endArrow=block;exitX=0.75;exitY=1;entryX=0.5;entryY=0;rounded=0;sketch=1;hachureGap=4;jiggle=2;curveFitting=1;fontFamily=Architects Daughter;fontSource=https%3A%2F%2Ffonts.googleapis.com%2Fcss%3Ffamily%3DArchitects%2BDaughter;fontSize=18;exitDx=0;exitDy=0;" edge="1" parent="1" source="2fKACoEcTCi64HmEH-q2-4" target="2fKACoEcTCi64HmEH-q2-6">
          <mxGeometry relative="1" as="geometry">
            <Array as="points">
              <mxPoint x="601" y="214" />
            </Array>
            <mxPoint x="526.04" y="-50" as="sourcePoint" />
          </mxGeometry>
        </mxCell>
        <mxCell id="2fKACoEcTCi64HmEH-q2-18" value="" style="curved=1;startArrow=none;endArrow=block;exitX=0.5;exitY=0.99;entryX=0.5;entryY=-0.01;rounded=0;sketch=1;hachureGap=4;jiggle=2;curveFitting=1;fontFamily=Architects Daughter;fontSource=https%3A%2F%2Ffonts.googleapis.com%2Fcss%3Ffamily%3DArchitects%2BDaughter;fontSize=18;" edge="1" parent="1" source="2fKACoEcTCi64HmEH-q2-5" target="2fKACoEcTCi64HmEH-q2-7">
          <mxGeometry relative="1" as="geometry">
            <Array as="points" />
          </mxGeometry>
        </mxCell>
        <mxCell id="2fKACoEcTCi64HmEH-q2-22" value="" style="curved=1;startArrow=none;endArrow=block;entryX=0.5;entryY=0;rounded=0;sketch=1;hachureGap=4;jiggle=2;curveFitting=1;fontFamily=Architects Daughter;fontSource=https%3A%2F%2Ffonts.googleapis.com%2Fcss%3Ffamily%3DArchitects%2BDaughter;fontSize=18;exitX=0.5;exitY=1;exitDx=0;exitDy=0;" edge="1" parent="1" source="2fKACoEcTCi64HmEH-q2-9" target="2fKACoEcTCi64HmEH-q2-11">
          <mxGeometry relative="1" as="geometry">
            <Array as="points" />
            <mxPoint x="450" y="530" as="sourcePoint" />
          </mxGeometry>
        </mxCell>
        <mxCell id="2fKACoEcTCi64HmEH-q2-23" value="" style="curved=1;startArrow=none;endArrow=block;exitX=0.5;exitY=0.99;entryX=0.5;entryY=0.01;rounded=0;sketch=1;hachureGap=4;jiggle=2;curveFitting=1;fontFamily=Architects Daughter;fontSource=https%3A%2F%2Ffonts.googleapis.com%2Fcss%3Ffamily%3DArchitects%2BDaughter;fontSize=18;" edge="1" parent="1" source="2fKACoEcTCi64HmEH-q2-11" target="2fKACoEcTCi64HmEH-q2-12">
          <mxGeometry relative="1" as="geometry">
            <Array as="points" />
          </mxGeometry>
        </mxCell>
      </root>
    </mxGraphModel>
  </diagram>
</mxfile>
